<svg xmlns="http://www.w3.org/2000/svg" width="1025" height="542"><g fill="none" fill-rule="evenodd" stroke="#4C60E6" stroke-linecap="round" stroke-linejoin="round" opacity=".7"><path stroke-width="6" d="M98.25 33.5c-4.333-4.7-4.333-8.868 0-12.5" opacity=".24"/><path stroke-width="5" d="M548.25 182c-3 5.83-3 10.996 0 15.5" opacity=".6"/><path stroke-width="5" d="M163.25 129c-1 1.83 0 4.996 3 9.5M508.266 364c-7.667 1.83-10 4.996-7 9.5" opacity=".24"/><path stroke-width="4" d="M225.558 206c-5.667 3.162-7 6.996-4 11.5" opacity=".24"/><path stroke-width="6" d="M784 249.5c2.667-4.325 2.667-8.158 0-11.5m237.6 61.5c-4-4.325-4.667-8.158-2-11.5m-675-138.5c-4-4.325-4.667-8.158-2-11.5M710 67c1.333 4.325 3.333 8.158 6 11.5" opacity=".24"/><path stroke-width="4" d="M6 187.5c0-2.991-1.333-6.158-4-9.5m931 226.5c0-2.991-1.333-6.158-4-9.5" opacity=".6"/><path stroke-width="4" d="M685 364.5c0-2.991-1.333-6.158-4-9.5" opacity=".24"/><path stroke-width="6" d="M869.25 99.093c.335-4.753-1.415-7.784-5.25-9.093" opacity=".24"/><path stroke-width="4" d="M288 55c6 2 8 6 6 12m672-56c6 2 8 6 6 12" opacity=".6"/><path stroke-width="7" d="M59.308 491c-.173 6.322 2.902 9.57 9.224 9.742" opacity=".24"/><path stroke-width="6" d="M504.732 10.093c-.335-4.753 1.415-7.784 5.25-9.093" opacity=".24"/><path stroke-width="4" d="M400.25 539.093c.335-4.753-1.415-7.784-5.25-9.093" opacity=".6"/></g></svg>